<svg width="20" height="20" viewBox="0 0 20 20" fill="none" xmlns="http://www.w3.org/2000/svg">
<g clip-path="url(#clip0_28726_24670)">
<path d="M9.79004 0.349609H19.6504V10.21C19.6503 15.4237 15.4237 19.6503 10.21 19.6504H0.349609V9.79004C0.349702 4.5763 4.5763 0.349702 9.79004 0.349609Z" fill="url(#paint0_radial_28726_24670)" stroke="url(#paint1_linear_28726_24670)" stroke-width="0.699301"/>
<path d="M4.74512 10.4603C5.61673 10.1082 6.60871 10.5292 6.96094 11.4008C7.1769 11.9353 7.51706 12.4112 7.95215 12.7894C8.38718 13.1675 8.90559 13.4371 9.46484 13.5765C10.0241 13.7159 10.6083 13.7218 11.1699 13.5922C11.5282 13.5094 11.8708 13.3727 12.1865 13.1888L12.4443 13.0394L12.4453 13.3373C12.4481 13.9656 12.7286 14.5858 13.2617 15.0023C13.6 15.2666 13.9929 15.4116 14.3906 15.4447L14.8545 15.4838L14.4766 15.7562C13.7162 16.3046 12.8524 16.6969 11.9355 16.9086C10.8504 17.159 9.72118 17.1497 8.64062 16.8802C7.56009 16.6108 6.55825 16.0894 5.71777 15.3588C4.87732 14.6281 4.22187 13.7087 3.80469 12.6761C3.45255 11.8046 3.87363 10.8126 4.74512 10.4603ZM13.2412 3.59509C14.0964 3.9794 14.868 4.53093 15.5098 5.21912C16.2693 6.03366 16.8258 7.01667 17.1328 8.08728C17.4397 9.15777 17.4889 10.2861 17.2764 11.3793C17.0638 12.4724 16.5957 13.4998 15.9102 14.3773C15.3314 15.1181 14.2613 15.2491 13.5205 14.6703C12.7799 14.0916 12.6481 13.0224 13.2266 12.2816C13.5815 11.8273 13.8246 11.2948 13.9346 10.7289C14.0444 10.1633 14.0191 9.57962 13.8604 9.02576C13.7014 8.4716 13.4127 7.96203 13.0195 7.54041C12.7689 7.27172 12.4799 7.04307 12.1631 6.86169L11.9043 6.71423L12.1621 6.56384C12.7048 6.24729 13.1021 5.69462 13.1963 5.02478C13.256 4.59961 13.1849 4.18658 13.0146 3.82556L12.8164 3.40369L13.2412 3.59509ZM8.05078 3.35876C9.10362 2.9963 10.2274 2.88844 11.3301 3.04333C12.261 3.17417 12.9101 4.03522 12.7793 4.96619C12.6483 5.89703 11.7873 6.54525 10.8564 6.41443C10.2857 6.33427 9.70414 6.39086 9.15918 6.57849C8.61415 6.76616 8.12115 7.07988 7.7207 7.49451C7.32023 7.9092 7.02304 8.41293 6.85449 8.96423C6.74707 9.31565 6.69401 9.68018 6.69531 10.0453L6.69629 10.3431L6.4375 10.1957C5.89205 9.884 5.21505 9.81644 4.58789 10.0697C4.1898 10.2305 3.86718 10.4986 3.63965 10.8265L3.37402 11.2094L3.32715 10.7455C3.23241 9.81283 3.32453 8.86892 3.59961 7.96912C3.92524 6.90403 4.4978 5.93044 5.27148 5.12927C6.04513 4.3282 6.99778 3.72134 8.05078 3.35876Z" fill="white" stroke="url(#paint2_linear_28726_24670)" style="fill:white;fill-opacity:1;" stroke-width="0.344271" stroke-linecap="round"/>
</g>
<defs>
<radialGradient id="paint0_radial_28726_24670" cx="0" cy="0" r="1" gradientUnits="userSpaceOnUse" gradientTransform="translate(1.3986 0.699301) rotate(45) scale(25.3174 25.3174)">
<stop stop-color="#71E351" style="stop-color:#71E351;stop-color:color(display-p3 0.4441 0.8917 0.3195);stop-opacity:1;"/>
<stop offset="1" stop-color="#3BA31E" style="stop-color:#3BA31E;stop-color:color(display-p3 0.2314 0.6392 0.1176);stop-opacity:1;"/>
</radialGradient>
<linearGradient id="paint1_linear_28726_24670" x1="1.3986" y1="0.699301" x2="19.3007" y2="18.6014" gradientUnits="userSpaceOnUse">
<stop stop-color="#49C427" style="stop-color:#49C427;stop-color:color(display-p3 0.2863 0.7686 0.1529);stop-opacity:1;"/>
<stop offset="1" stop-color="#268C16" style="stop-color:#268C16;stop-color:color(display-p3 0.1471 0.5500 0.0848);stop-opacity:1;"/>
</linearGradient>
<linearGradient id="paint2_linear_28726_24670" x1="3.46289" y1="3.14685" x2="17.2337" y2="16.9177" gradientUnits="userSpaceOnUse">
<stop stop-color="#3CA520" style="stop-color:#3CA520;stop-color:color(display-p3 0.2358 0.6458 0.1265);stop-opacity:1;"/>
<stop offset="1" stop-color="#238512" style="stop-color:#238512;stop-color:color(display-p3 0.1355 0.5208 0.0694);stop-opacity:1;"/>
</linearGradient>
<clipPath id="clip0_28726_24670">
<rect width="20" height="20" fill="white" style="fill:white;fill-opacity:1;"/>
</clipPath>
</defs>
</svg>
